<?xml version="1.0" encoding="iso-8859-1"?>
<!-- Generator: Adobe Illustrator 19.0.0, SVG Export Plug-In . SVG Version: 6.00 Build 0)  -->
<svg version="1.1" id="Capa_1" xmlns="http://www.w3.org/2000/svg" xmlns:xlink="http://www.w3.org/1999/xlink" x="0px" y="0px"
	 viewBox="0 0 480 480" style="enable-background:new 0 0 480 480;" xml:space="preserve">
<g>
	<g>
		<path d="M472,336h-32v-32c0-4.418-3.582-8-8-8h-56v-24h40c4.418,0,8-3.582,8-8v-48c0-4.418-3.582-8-8-8h-40v-32
			c0-4.418-3.582-8-8-8H248v-24h40c4.418,0,8-3.582,8-8V88c0-4.418-3.582-8-8-8h-96c-4.418,0-8,3.582-8,8v48c0,4.418,3.582,8,8,8h40
			v24H112c-4.418,0-8,3.582-8,8v32H64c-4.418,0-8,3.582-8,8v48c0,4.418,3.582,8,8,8h40v24H48c-4.418,0-8,3.582-8,8v32H8
			c-4.418,0-8,3.582-8,8v48c0,4.418,3.582,8,8,8h80c4.418,0,8-3.582,8-8v-48c0-4.418-3.582-8-8-8H56v-24h112v24h-32
			c-4.418,0-8,3.582-8,8v48c0,4.418,3.582,8,8,8h80c4.418,0,8-3.582,8-8v-48c0-4.418-3.582-8-8-8h-32v-32c0-4.418-3.582-8-8-8h-56
			v-24h40c4.418,0,8-3.582,8-8v-48c0-4.418-3.582-8-8-8h-40v-24h240v24h-40c-4.418,0-8,3.582-8,8v48c0,4.418,3.582,8,8,8h40v24h-56
			c-4.418,0-8,3.582-8,8v32h-32c-4.418,0-8,3.582-8,8v48c0,4.418,3.582,8,8,8h80c4.418,0,8-3.582,8-8v-48c0-4.418-3.582-8-8-8h-32
			v-24h112v24h-32c-4.418,0-8,3.582-8,8v48c0,4.418,3.582,8,8,8h80c4.418,0,8-3.582,8-8v-48C480,339.582,476.418,336,472,336z
			 M80,352v32H16v-32H80z M208,352v32h-64v-32H208z M152,224v32H72v-32H152z M200,128V96h80v32H200z M336,352v32h-64v-32H336z
			 M328,256v-32h80v32H328z M464,384h-64v-32h64V384z"/>
	</g>
</g>
<g>
</g>
<g>
</g>
<g>
</g>
<g>
</g>
<g>
</g>
<g>
</g>
<g>
</g>
<g>
</g>
<g>
</g>
<g>
</g>
<g>
</g>
<g>
</g>
<g>
</g>
<g>
</g>
<g>
</g>
</svg>
